HIERARCHY
ROOT Pelvis
{
	OFFSET 0.000000 0.000000 0.000000
	CHANNELS 6 Xposition Yposition Zposition Xrotation Yrotation Zrotation
	JOINT LeftUpLeg_virtual
	{
		OFFSET 0.000000 0.000000 0.000000
		CHANNELS 3 Xrotation Yrotation Zrotation
		JOINT LeftUpLeg
		{
			OFFSET 18.735201 -5.666702 -4.541200
			CHANNELS 3 Xrotation Yrotation Zrotation
			JOINT LeftLeg
			{
				OFFSET -0.021200 -31.938179 0.493100
				CHANNELS 3 Xrotation Yrotation Zrotation
				JOINT LeftFoot
				{
					OFFSET 0.021200 -31.938179 -4.336299
					CHANNELS 3 Xrotation Yrotation Zrotation
					JOINT LeftToeBase
					{
						OFFSET 0.943001 -26.722000 15.023500
						CHANNELS 3 Xrotation Yrotation Zrotation
						End Site
						{
							OFFSET 0 0 0
						}
					}
				}
			}
		}
	}
	JOINT RightUpLeg_virtual
	{
		OFFSET 0.000000 0.000000 0.000000
		CHANNELS 3 Xrotation Yrotation Zrotation
		JOINT RightUpLeg
		{
			OFFSET -18.735201 -5.666702 -4.541200
			CHANNELS 3 Xrotation Yrotation Zrotation
			JOINT RightLeg
			{
				OFFSET 0.018946 -31.938133 0.493100
				CHANNELS 3 Xrotation Yrotation Zrotation
				JOINT RightFoot
				{
					OFFSET -0.018946 -31.938126 -4.336299
					CHANNELS 3 Xrotation Yrotation Zrotation
					JOINT RightToeBase
					{
						OFFSET -0.943001 -26.722004 15.023500
						CHANNELS 3 Xrotation Yrotation Zrotation
						End Site
						{
							OFFSET 0 0 0
						}
					}
				}
			}
		}
	}
	JOINT Hips_virtual
	{
		OFFSET 0.000000 0.000000 0.000000
		CHANNELS 3 Xrotation Yrotation Zrotation
		JOINT Hips
		{
			OFFSET -0.000000 -0.000000 -0.000000
			CHANNELS 3 Xrotation Yrotation Zrotation
			JOINT Spine
			{
				OFFSET 0.000000 10.199997 -0.299500
				CHANNELS 3 Xrotation Yrotation Zrotation
				JOINT Spine1
				{
					OFFSET 0.000000 11.900002 -1.516600
					CHANNELS 3 Xrotation Yrotation Zrotation
					JOINT Spine2
					{
						OFFSET 0.000000 13.600006 -2.842500
						CHANNELS 3 Xrotation Yrotation Zrotation
						JOINT Neck_virtual
						{
							OFFSET 0.000000 0.000000 0.000000
							CHANNELS 3 Xrotation Yrotation Zrotation
							JOINT Neck
							{
								OFFSET 0.000000 9.624100 -2.890100
								CHANNELS 3 Xrotation Yrotation Zrotation
								JOINT Head
								{
									OFFSET 0.000000 14.068802 -1.351900
									CHANNELS 3 Xrotation Yrotation Zrotation
									End Site
									{
										OFFSET 0 0 0
									}
								}
							}
						}
						JOINT LeftShoulder_virtual
						{
							OFFSET 0.000000 0.000000 0.000000
							CHANNELS 3 Xrotation Yrotation Zrotation
							JOINT LeftShoulder
							{
								OFFSET 15.263000 10.923401 -0.547700
								CHANNELS 3 Xrotation Yrotation Zrotation
								JOINT LeftArm
								{
									OFFSET 25.438599 -2.830597 -13.032500
									CHANNELS 3 Xrotation Yrotation Zrotation
									JOINT LeftForeArm
									{
										OFFSET 29.960503 0.000000 0.000000
										CHANNELS 3 Xrotation Yrotation Zrotation
										JOINT LeftHand
										{
											OFFSET 27.849251 0.000000 0.000000
											CHANNELS 3 Xrotation Yrotation Zrotation
											End Site
											{
												OFFSET 0 0 0
											}
										}
									}
								}
							}
						}
						JOINT RightShoulder_virtual
						{
							OFFSET 0.000000 0.000000 0.000000
							CHANNELS 3 Xrotation Yrotation Zrotation
							JOINT RightShoulder
							{
								OFFSET -15.263000 10.923401 -0.547700
								CHANNELS 3 Xrotation Yrotation Zrotation
								JOINT RightArm
								{
									OFFSET -25.438599 -2.830597 -13.032500
									CHANNELS 3 Xrotation Yrotation Zrotation
									JOINT RightForeArm
									{
										OFFSET -29.960503 0.000000 0.000000
										CHANNELS 3 Xrotation Yrotation Zrotation
										JOINT RightHand
										{
											OFFSET -27.849251 0.000000 0.000000
											CHANNELS 3 Xrotation Yrotation Zrotation
											End Site
											{
												OFFSET 0 0 0
											}
										}
									}
								}
							}
						}
					}
				}
			}
		}
	}
}
MOTION
Frames: 5
Frame Time: 0.03333333
-4.322640 65.070496 9.405819 0.000000 0.000000 0.000000 35.518476 -55.410401 28.479249 -77.885781 -10.836309 30.864354 93.475141 -18.365817 -1.127323 -34.550071 2.409973 -15.214318 0.000000 0.000000 0.000000 35.691222 -54.777803 28.218752 -79.650565 2.066614 -41.466290 100.716802 12.680846 0.088630 -49.493023 -4.800509 14.057525 0.000000 0.000000 0.000000 36.880692 -54.797563 29.522099 -0.193944 -0.147218 -0.614485 10.163559 -2.824897 -3.455526 3.284600 -3.176465 -2.923969 0.000000 0.000000 0.000000 2.876075 -2.838621 -2.279417 -1.671448 3.408540 -1.078740 0.000000 0.000000 0.000000 2.911092 -2.945370 -2.994097 4.716765 -10.826558 -7.143965 -64.324966 6.000706 -21.060950 24.444521 -32.157309 19.338981 0.000000 0.000000 0.000000 3.333184 -2.642026 -2.571458 5.037766 9.587949 16.322188 -9.681631 -0.632018 51.020919 -17.860198 38.233985 8.239936 0.000000 0.000000 0.000000 
-3.785330 62.009377 8.442623 0.000000 0.000000 0.000000 36.981728 -54.497943 29.302826 -84.036701 -14.782286 31.431803 99.329884 -19.888708 -0.746517 -34.681064 2.342973 -16.270395 0.000000 0.000000 0.000000 37.100116 -54.010083 28.956747 -86.136342 4.311102 -43.013765 106.639457 13.964487 -0.655700 -50.545640 -4.238592 13.035095 0.000000 0.000000 0.000000 38.383112 -53.961469 30.336067 -0.061668 -0.258519 -0.642168 9.597072 -2.600637 -3.193128 3.469004 -2.961570 -2.876996 0.000000 0.000000 0.000000 3.193302 -2.640143 -2.203910 -1.557401 3.572675 -1.286459 0.000000 0.000000 0.000000 3.042414 -2.705286 -2.937741 5.114394 -10.497763 -6.845254 -65.207700 3.993827 -21.519587 24.964714 -31.531722 19.259018 0.000000 0.000000 0.000000 3.509406 -2.459401 -2.527059 5.507004 10.041232 16.740930 -8.763995 -0.146307 49.606889 -18.637752 40.758911 9.049752 0.000000 0.000000 0.000000 
-3.292823 59.043179 7.528778 0.000000 0.000000 0.000000 38.214191 -53.811843 30.013921 -89.794475 -18.894929 31.613353 104.812675 -21.378490 -0.097217 -34.854995 2.056961 -17.392216 0.000000 0.000000 0.000000 38.135586 -53.286230 29.412820 -92.388404 7.095869 -43.679999 112.239133 14.867539 -1.504424 -50.535876 -3.899081 11.910209 0.000000 0.000000 0.000000 39.452867 -53.278126 30.886266 0.010167 -0.309574 -0.629340 8.981947 -2.318767 -2.987903 3.688142 -2.686989 -2.843633 0.000000 0.000000 0.000000 3.615621 -2.386585 -2.171497 -1.384874 3.744402 -1.467449 0.000000 0.000000 0.000000 3.234291 -2.403399 -2.896670 5.475899 -10.023902 -6.596936 -65.999906 2.121209 -22.126227 25.572418 -30.783912 19.099154 0.000000 0.000000 0.000000 3.722671 -2.219049 -2.515915 5.934699 10.322612 17.221752 -7.860992 -0.122657 47.868186 -19.070465 42.553629 9.675787 0.000000 0.000000 0.000000 
-2.855268 56.255745 6.748219 0.000000 0.000000 0.000000 39.247141 -53.385626 30.643791 -95.055032 -23.034384 31.375905 109.719729 -22.732866 0.697689 -34.925062 1.553526 -18.445421 0.000000 0.000000 0.000000 39.037195 -52.717196 29.805399 -98.365133 10.173691 -43.476890 117.453791 15.395076 -2.355066 -49.558306 -3.725336 10.728472 0.000000 0.000000 0.000000 40.144662 -52.780215 31.239103 -0.001554 -0.279588 -0.628329 8.309941 -2.011343 -2.842049 3.932212 -2.401714 -2.833394 0.000000 0.000000 0.000000 4.050204 -2.117691 -2.194604 -1.181975 3.930150 -1.624618 0.000000 0.000000 0.000000 3.486918 -2.085833 -2.879641 5.819987 -9.460659 -6.483612 -66.753809 0.434516 -22.793649 26.255344 -29.795922 18.845438 0.000000 0.000000 0.000000 3.968424 -1.959554 -2.537460 6.339155 10.460272 17.822824 -7.078842 -0.275167 46.068045 -19.019002 43.422576 9.943762 0.000000 0.000000 0.000000 
-2.517146 53.729202 6.014580 0.000000 0.000000 0.000000 40.024707 -53.176260 31.148429 -99.712873 -26.958951 30.841081 113.860162 -23.848654 1.458842 -34.468256 0.855749 -19.283871 0.000000 0.000000 0.000000 39.668578 -52.340839 30.073804 -104.062249 13.291870 -42.568717 122.202698 15.663890 -3.097535 -47.545777 -3.656962 9.823724 0.000000 0.000000 0.000000 40.515548 -52.473673 31.437151 0.002112 -0.256431 -0.588347 7.598211 -1.723552 -2.721924 4.180889 -2.145437 -2.847149 0.000000 0.000000 0.000000 4.442898 -1.878158 -2.267241 -0.977141 4.137432 -1.762325 0.000000 0.000000 0.000000 3.788691 -1.794250 -2.887726 6.173063 -8.860810 -6.577679 -67.495834 -1.120001 -23.444433 27.049098 -28.618716 18.528147 0.000000 0.000000 0.000000 4.230892 -1.714689 -2.582630 6.746444 10.459670 18.517169 -6.427917 -0.283380 44.385493 -18.415064 43.338059 9.768315 0.000000 0.000000 0.000000 
